<svg width="12" height="12" viewBox="0 0 12 12" fill="none" xmlns="http://www.w3.org/2000/svg">
<path fill-rule="evenodd" clip-rule="evenodd" d="M2.58216 0.0114248C2.2496 0.0863314 1.56604 0.722106 0.859142 1.61398C0.525383 2.0351 0.271062 2.41041 0.120943 2.70348C-0.0285643 2.99532 -0.0295926 3.00944 0.063992 3.49929C0.471906 5.6347 2.17436 8.12541 4.46494 9.93792C5.86023 11.042 7.39772 11.7848 8.68651 11.9775C9.06768 12.0345 9.15048 12.0061 9.73203 11.6187C10.7645 10.931 11.8525 9.86813 11.9697 9.43267C12.0189 9.25014 11.9318 8.98687 11.7592 8.79573C11.47 8.47567 9.86069 7.46603 9.16936 7.17097C8.5323 6.89905 8.33966 6.96292 7.75994 7.63839C7.58831 7.8384 7.42958 8.01715 7.4072 8.03563C7.37452 8.06265 7.30895 8.04575 7.0718 7.94908C6.04921 7.53235 5.18355 6.8232 4.55494 5.88733C4.34804 5.57931 4.04163 4.95593 3.95302 4.66275C3.93782 4.6125 3.99035 4.55577 4.29195 4.29678C4.71748 3.93139 4.84125 3.79906 4.91761 3.62776C4.98951 3.46655 4.98854 3.29244 4.91452 3.06333C4.75342 2.56464 4.23575 1.65412 3.53641 0.639389C3.27666 0.262522 3.18661 0.172189 2.97793 0.0792438C2.80757 0.00336438 2.69987 -0.0150913 2.58216 0.0114248Z" fill="white" fill-opacity="0.35"/>
</svg>
