<svg width="255" height="255" viewBox="0 0 255 255" fill="none" xmlns="http://www.w3.org/2000/svg">
<g filter="url(#filter0_d_1_328)">
<path d="M153.382 129.259C151.338 125.901 147.344 124.095 143.032 123.163C147.301 122.037 151.208 120.058 153.108 116.612C154.596 113.911 154.892 111.369 153.982 109.057C152.537 105.374 148.478 103.51 147.134 102.983C146.542 101.661 144.505 97.6888 140.764 96.4031C138.409 95.5942 135.881 96.0059 133.252 97.6093C129.894 99.6534 128.088 103.648 127.156 107.96C126.03 103.691 124.05 99.7834 120.605 97.8838C117.904 96.3959 115.361 96.0998 113.05 97.0099C109.367 98.4544 107.503 102.514 106.976 103.857C105.654 104.449 101.682 106.486 100.403 110.228C99.5942 112.582 100.006 115.103 101.609 117.739C103.653 121.098 107.648 122.903 111.96 123.835C107.691 124.962 103.783 126.941 101.891 130.386C100.403 133.088 100.107 135.63 101.017 137.941C102.462 141.625 106.521 143.488 107.864 144.016C108.457 145.337 110.493 149.31 114.235 150.596C115.015 150.863 115.824 151 116.64 151C118.279 151 119.991 150.466 121.746 149.389C125.105 147.345 126.911 143.351 127.842 139.039C128.969 143.308 130.948 147.215 134.393 149.108C137.095 150.596 139.637 150.892 141.948 149.982C145.632 148.537 147.496 144.478 148.023 143.134C149.345 142.542 153.317 140.505 154.603 136.764C155.404 134.409 155 131.881 153.397 129.252L153.382 129.259Z" fill="white"/>
</g>
<defs>
<filter id="filter0_d_1_328" x="0" y="0" width="255.003" height="255" filterUnits="userSpaceOnUse" color-interpolation-filters="sRGB">
<feFlood flood-opacity="0" result="BackgroundImageFix"/>
<feColorMatrix in="SourceAlpha" type="matrix" values="0 0 0 0 0 0 0 0 0 0 0 0 0 0 0 0 0 0 127 0" result="hardAlpha"/>
<feOffset dy="4"/>
<feGaussianBlur stdDeviation="50"/>
<feComposite in2="hardAlpha" operator="out"/>
<feColorMatrix type="matrix" values="0 0 0 0 0.977759 0 0 0 0 0.925348 0 0 0 0 0.791047 0 0 0 1 0"/>
<feBlend mode="plus-lighter" in2="BackgroundImageFix" result="effect1_dropShadow_1_328"/>
<feBlend mode="normal" in="SourceGraphic" in2="effect1_dropShadow_1_328" result="shape"/>
</filter>
</defs>
</svg>
