<svg width="410" height="346" viewBox="0 0 410 346" fill="none" xmlns="http://www.w3.org/2000/svg">
<g filter="url(#filter0_d_13_110)">
<circle cx="189" cy="172" r="50" fill="url(#paint0_linear_13_110)"/>
<circle cx="189" cy="172" r="49.5" stroke="url(#paint1_linear_13_110)" style="mix-blend-mode:soft-light"/>
</g>
<g filter="url(#filter1_d_13_110)">
<path d="M120.636 156.953C124.173 140.884 133.258 126.574 146.295 116.536L148.65 119.595C136.332 129.079 127.748 142.6 124.407 157.783L120.636 156.953Z" fill="url(#paint2_linear_13_110)"/>
</g>
<path d="M211 161H241.8V301H206V198.6L181.6 204.8L173 174.6L211 161Z" fill="white"/>
<path d="M360.413 284.2C350.279 297.4 336.079 304 317.812 304C299.546 304 285.279 297.4 275.012 284.2C264.879 270.867 259.812 253.133 259.812 231C259.812 208.867 264.879 191.2 275.012 178C285.279 164.667 299.546 158 317.812 158C336.079 158 350.279 164.667 360.413 178C370.679 191.2 375.812 208.867 375.812 231C375.812 253.133 370.679 270.867 360.413 284.2ZM295.613 231C295.613 256.467 303.012 269.2 317.812 269.2C332.613 269.2 340.013 256.467 340.013 231C340.013 205.533 332.613 192.8 317.812 192.8C303.012 192.8 295.613 205.533 295.613 231Z" fill="white"/>
<g filter="url(#filter2_d_13_110)">
<path d="M344.77 127.6V131.406H340.964V143H337.026V131.406H333.22V127.6H344.77ZM358.625 141.02C357.07 142.56 355.164 143.33 352.905 143.33C350.646 143.33 348.732 142.56 347.163 141.02C345.608 139.465 344.831 137.559 344.831 135.3C344.831 133.041 345.608 131.142 347.163 129.602C348.732 128.047 350.646 127.27 352.905 127.27C355.164 127.27 357.07 128.047 358.625 129.602C360.194 131.142 360.979 133.041 360.979 135.3C360.979 137.559 360.194 139.465 358.625 141.02ZM349.935 138.314C350.727 139.091 351.717 139.48 352.905 139.48C354.093 139.48 355.083 139.091 355.875 138.314C356.667 137.522 357.063 136.517 357.063 135.3C357.063 134.083 356.667 133.085 355.875 132.308C355.083 131.516 354.093 131.12 352.905 131.12C351.717 131.12 350.727 131.516 349.935 132.308C349.143 133.085 348.747 134.083 348.747 135.3C348.747 136.517 349.143 137.522 349.935 138.314ZM374.686 127.6V143H370.748V131.406H366.744V143H362.806V127.6H374.686Z" fill="#C6B68D"/>
</g>
<defs>
<filter id="filter0_d_13_110" x="19" y="6" width="340" height="340" filterUnits="userSpaceOnUse" color-interpolation-filters="sRGB">
<feFlood flood-opacity="0" result="BackgroundImageFix"/>
<feColorMatrix in="SourceAlpha" type="matrix" values="0 0 0 0 0 0 0 0 0 0 0 0 0 0 0 0 0 0 127 0" result="hardAlpha"/>
<feOffset dy="4"/>
<feGaussianBlur stdDeviation="60"/>
<feComposite in2="hardAlpha" operator="out"/>
<feColorMatrix type="matrix" values="0 0 0 0 0.776471 0 0 0 0 0.713726 0 0 0 0 0.552941 0 0 0 1 0"/>
<feBlend mode="normal" in2="BackgroundImageFix" result="effect1_dropShadow_13_110"/>
<feBlend mode="normal" in="SourceGraphic" in2="effect1_dropShadow_13_110" result="shape"/>
</filter>
<filter id="filter1_d_13_110" x="0.63623" y="0.535645" width="268.014" height="281.248" filterUnits="userSpaceOnUse" color-interpolation-filters="sRGB">
<feFlood flood-opacity="0" result="BackgroundImageFix"/>
<feColorMatrix in="SourceAlpha" type="matrix" values="0 0 0 0 0 0 0 0 0 0 0 0 0 0 0 0 0 0 127 0" result="hardAlpha"/>
<feOffset dy="4"/>
<feGaussianBlur stdDeviation="60"/>
<feComposite in2="hardAlpha" operator="out"/>
<feColorMatrix type="matrix" values="0 0 0 0 0.976471 0 0 0 0 0.92549 0 0 0 0 0.792157 0 0 0 0.25 0"/>
<feBlend mode="normal" in2="BackgroundImageFix" result="effect1_dropShadow_13_110"/>
<feBlend mode="normal" in="SourceGraphic" in2="effect1_dropShadow_13_110" result="shape"/>
</filter>
<filter id="filter2_d_13_110" x="298.22" y="96.27" width="111.466" height="86.0601" filterUnits="userSpaceOnUse" color-interpolation-filters="sRGB">
<feFlood flood-opacity="0" result="BackgroundImageFix"/>
<feColorMatrix in="SourceAlpha" type="matrix" values="0 0 0 0 0 0 0 0 0 0 0 0 0 0 0 0 0 0 127 0" result="hardAlpha"/>
<feOffset dy="4"/>
<feGaussianBlur stdDeviation="17.5"/>
<feComposite in2="hardAlpha" operator="out"/>
<feColorMatrix type="matrix" values="0 0 0 0 0.776471 0 0 0 0 0.713726 0 0 0 0 0.552941 0 0 0 1 0"/>
<feBlend mode="normal" in2="BackgroundImageFix" result="effect1_dropShadow_13_110"/>
<feBlend mode="normal" in="SourceGraphic" in2="effect1_dropShadow_13_110" result="shape"/>
</filter>
<linearGradient id="paint0_linear_13_110" x1="209.63" y1="122" x2="148.429" y2="129.311" gradientUnits="userSpaceOnUse">
<stop stop-color="#8B7641"/>
<stop offset="1" stop-color="#C6B68D"/>
</linearGradient>
<linearGradient id="paint1_linear_13_110" x1="189" y1="122" x2="189" y2="222" gradientUnits="userSpaceOnUse">
<stop stop-color="white"/>
<stop offset="1" stop-color="white" stop-opacity="0"/>
</linearGradient>
<linearGradient id="paint2_linear_13_110" x1="217.883" y1="102" x2="132.2" y2="112.236" gradientUnits="userSpaceOnUse">
<stop stop-color="#8B7641"/>
<stop offset="1" stop-color="#C6B68D"/>
</linearGradient>
</defs>
</svg>
