<svg width="16" height="15" viewBox="0 0 16 15" fill="none" xmlns="http://www.w3.org/2000/svg">
<path d="M15.5743 6.24111L12.1248 9.60359L12.9394 14.3527C12.9569 14.4546 12.9455 14.5592 12.9066 14.6549C12.8676 14.7506 12.8027 14.8335 12.7191 14.8943C12.6355 14.955 12.5366 14.9911 12.4335 14.9986C12.3305 15.006 12.2274 14.9845 12.1359 14.9364L7.8708 12.6942L3.60623 14.9358C3.51478 14.9839 3.41169 15.0055 3.30864 14.998C3.20559 14.9906 3.10667 14.9544 3.02307 14.8937C2.93948 14.833 2.87454 14.7501 2.83559 14.6544C2.79665 14.5587 2.78526 14.454 2.80271 14.3522L3.61731 9.60304L0.167327 6.24111C0.0932758 6.16896 0.0409005 6.07753 0.0161296 5.97715C-0.00864125 5.87678 -0.00481828 5.77147 0.0271658 5.67315C0.0591498 5.57484 0.118018 5.48744 0.197105 5.42085C0.276193 5.35427 0.372342 5.31115 0.474669 5.29638L5.24206 4.60417L7.37407 0.283668C7.56069 -0.094556 8.18091 -0.094556 8.36753 0.283668L10.4995 4.60417L15.2669 5.29638C15.369 5.31154 15.4649 5.35487 15.5437 5.4215C15.6225 5.48814 15.6812 5.57543 15.7131 5.67358C15.745 5.77173 15.749 5.87684 15.7244 5.9771C15.6999 6.07736 15.6479 6.16879 15.5743 6.24111Z" fill="#C6B68D"/>
</svg>
